<svg aria-hidden="true" style="position:absolute;width:0;height:0;overflow:hidden" xmlns="http://www.w3.org/2000/svg"><defs><symbol id="menu-close" viewBox="0 0 32 32"><path d="m23.73 10.3-1.5-1.5-5.96 5.96L10.3 8.8l-1.5 1.5 5.96 5.97-5.96 5.96 1.5 1.5 5.97-5.96 5.96 5.96 1.5-1.5-5.96-5.96 5.96-5.97z"/></symbol><symbol id="logo" viewBox="0 0 39 32"><path fill="#fff" style="fill:var(--color1, #fff)" d="m22.37 9.64-.75-.57a.57.57 0 0 0-.8.08l-10.36 11.9.16.17 2.57-2.36a.4.4 0 0 1 .14-.76h.01c.17 0 .32.11.37.27l3.39-3.14a.3.3 0 0 1 .36 0l.17.13a.29.29 0 0 0 .38-.04l4.43-4.97a.47.47 0 0 0-.07-.7v-.01z"/><path fill="#fff" style="fill:var(--color1, #fff)" d="M27.24 12.99a22.87 22.87 0 0 1-7.33 3.48l-.17.03a39.2 39.2 0 0 1-8.06 1.21h-.1c.06.41.16.8.3 1.2 1.56 1.4 13.26-1 15.55-3.78.48-.58-.2-2.14-.2-2.14zm-13.9 5.87a.39.39 0 1 1 .36-.24.38.38 0 0 1-.35.24zM2.3 12.16l.09-.39 1.48.34a1.95 1.95 0 0 1 .24.99c0 .59-.21 1.13-.56 1.55a1.96 1.96 0 0 1-1.5.66c-.54 0-1.04-.21-1.41-.56a1.88 1.88 0 0 1-.54-.88v-.01a2.1 2.1 0 0 1 0-1.16v.01c.05-.28.17-.55.32-.79.15-.21.34-.4.57-.53l.2.32c-.38.24-.66.63-.74 1.1-.08.3-.07.61.01.9.07.28.23.53.44.73.22.21.49.35.78.42.29.08.6.08.88 0 .57-.2 1-.67 1.11-1.26v-.01c.1-.36.07-.74-.07-1.1l-1.3-.32zm3.23-3.59-1.33 1.78.57 1.02-.26.35-2.12-3.85.25-.34 4.3.93-.27.35-1.14-.24zm-.38-.09-2.28-.51L4 10.02l1.14-1.54zm0-3.6.35-.25 2.17 2.91 1.8-1.34.21.3-2.13 1.59-2.4-3.2zm3.6-2.38.39-.17 1.5 3.3 2.05-.92.14.33-2.42 1.1L8.74 2.5zm7.53 1.32.09.36-2.75.64-.92-3.9L15.37.3l.08.36-2.29.53.33 1.38 2-.47.1.35-2.02.47.34 1.45 2.37-.55zm3.93.14-.95-1.26h-.32l-1.08.04L17.9 4h-.42l-.13-4L18.86 0c.43-.04.85.07 1.2.33.3.23.48.58.48.98v.01c.01.29-.06.56-.21.8-.17.23-.4.4-.67.49l1 1.33-.46.02zm-.4-1.88a.9.9 0 0 0 .3-.75v-.02a.92.92 0 0 0-.35-.7 1.37 1.37 0 0 0-.9-.24L17.78.4l.07 2 1.06-.04h.05c.32 0 .62-.1.85-.3v.01zm3.42.82-.2 1.36-.42-.06.21-1.34L21.63 0l.44.07 1.01 2.43L24.8.5l.4.08-1.98 2.33zm5.65-.24.5.64-.22.17-.5-.66-.3.75-.25-.1.32-.75-.82.1v-.27l.81-.09-.5-.64.22-.18.44.66.31-.76.25.1-.3.77.83-.11v.28l-.78.09zm1.91 4.6c-.13-.2-.21-.43-.24-.68l.33-.16c.03.23.1.45.22.64.13.22.3.41.5.57a1.36 1.36 0 0 0 .8.37c.26 0 .49-.17.58-.4a.51.51 0 0 0 .02-.22 1.05 1.05 0 0 0-.14-.4l-.34-.5a5 5 0 0 1-.4-.6l-.02-.03a1.13 1.13 0 0 1-.14-.54c0-.2.08-.41.22-.57.12-.15.28-.26.47-.32a1.1 1.1 0 0 1 .64 0c.49.18.89.5 1.18.9v.01c.12.17.22.37.27.57l-.32.17a2.1 2.1 0 0 0-.25-.53 2.07 2.07 0 0 0-.38-.4 1.28 1.28 0 0 0-.8-.35c-.2 0-.37.1-.48.24a.49.49 0 0 0-.13.39c.01.14.06.28.14.4l.34.51c.16.2.3.4.42.62.09.15.14.34.15.53 0 .22-.08.42-.22.58a1 1 0 0 1-.48.32c-.2.06-.43.06-.64 0a2.17 2.17 0 0 1-.73-.41c-.23-.2-.42-.44-.57-.7zm5.75.84-.8-1.15.3-.2 1.85 2.64-.3.21-.8-1.14-2.99 2.09-.24-.35 2.98-2.1zm-1.28 4.7c.23-.7.8-1.22 1.5-1.37a2.04 2.04 0 0 1 1.1.04h-.02c.7.24 1.22.83 1.36 1.55v.02c.1.36.1.74 0 1.1-.1.34-.3.65-.57.89a2.11 2.11 0 0 1-2.05.44h.01c-.35-.1-.64-.3-.87-.56-.24-.28-.4-.61-.49-.98v-.02a2.17 2.17 0 0 1 .03-1.13v.01zM36 14.6a1.58 1.58 0 0 0 1.2.53 1.62 1.62 0 0 0 1.63-2.05l.01.02c-.06-.31-.2-.58-.4-.8h.01c-.2-.21-.46-.37-.74-.46a1.7 1.7 0 0 0-.89 0h.01a1.6 1.6 0 0 0-1.22 1.1v.01a1.67 1.67 0 0 0 0 .9v-.01c.05.29.2.54.39.76zm-1.18 4.82 1.48-.57c0-.1.03-.2.06-.32l.28-1.03-1.21-.31.1-.41 3.87 1.03-.39 1.45c-.08.42-.32.8-.66 1.06a1.22 1.22 0 0 1-1.1.16h.01a1.24 1.24 0 0 1-.97-1.2l-1.58.57.1-.43zm1.91.16a1.03 1.03 0 0 0 1.44.38c.25-.2.42-.48.48-.8l.28-1.03-1.94-.52-.27 1.03c-.1.3-.1.64.01.94zm-3.96 3.52-.3-.22 1.72-2.26 3.19 2.42-1.66 2.18-.29-.22 1.4-1.84-1.14-.87-1.25 1.65-.29-.21 1.28-1.65-1.18-.9-1.48 1.92zm-1.34 4.55-.82.05v-.28h.82l-.44-.68.22-.14.44.68.35-.76.25.13-.4.72.82-.05v.28h-.83l.44.68-.22.14-.43-.68-.38.74-.24-.14.42-.69zM24 27.21l.7.38c.23-.45.63-.78 1.12-.9h.01c.23-.07.47-.1.7-.08.22.02.42.1.58.21a.9.9 0 0 1 .32.45c.07.23.06.47-.04.7-.15.3-.34.56-.57.78.2.1.37.23.52.38.11.11.2.24.24.39l.02.19c0 .18-.06.35-.17.48-.15.22-.38.38-.64.44a1 1 0 0 1-.71 0 .72.72 0 0 1-.41-.48.79.79 0 0 1 .04-.58c.13-.26.3-.5.5-.7l-1.37-.77a2.6 2.6 0 0 0-.03.82h-.35c-.02-.34.02-.67.11-1l-.72-.4.15-.31zm1 .57 1.5.84c.2-.2.37-.41.5-.66a.72.72 0 0 0 0-.51.62.62 0 0 0-.4-.43 1.12 1.12 0 0 0-.75 0h.01c-.4.1-.72.38-.89.73v.01l.02.02zm2.14 2.28a.5.5 0 0 0 .05-.42.66.66 0 0 0-.18-.3c-.15-.12-.3-.23-.48-.31a3.1 3.1 0 0 0-.45.57.57.57 0 0 0-.04.43c.03.13.12.23.24.3.15.05.32.05.46 0a.7.7 0 0 0 .38-.27h.02zm-10.1 1.55.07-4h.41l-.06 3.2 1.62-2.66h.2l1.52 2.7.06-3.18h.4l-.07 4h-.35l-1.68-2.99-1.78 2.94-.35-.01zm-2-4.18a1.94 1.94 0 0 1 .52 1.99v-.01c-.09.35-.28.67-.54.93a1.9 1.9 0 0 1-.92.5c-.36.08-.74.07-1.1-.03-.38-.1-.7-.28-.97-.52a1.92 1.92 0 0 1-.52-.9 2.12 2.12 0 0 1 1.46-2.52v-.01c.37-.08.75-.07 1.11.03.37.1.7.28.97.54zm-1.94-.2c-.28.06-.54.2-.74.41-.21.21-.36.47-.43.76-.08.29-.08.59 0 .87.07.28.2.54.41.74a1.75 1.75 0 0 0 1.67.43H14c.58-.14 1.03-.59 1.18-1.15v-.02a1.65 1.65 0 0 0-1.19-2.04h-.01a1.6 1.6 0 0 0-.9 0h.02zm-4.33-2.66.16 1.57c.1.04.19.1.28.15l.93.53.63-1.1.37.2-2 3.45-1.3-.75c-.38-.2-.69-.51-.86-.91a1.24 1.24 0 0 1 .13-1.1v.01c.13-.25.34-.45.6-.57.26-.1.55-.13.82-.06l-.17-1.68.41.26zm-.65 1.8a1.03 1.03 0 0 0-.74 1.3c.13.29.37.53.66.67l.92.53 1-1.71-.92-.53a1.4 1.4 0 0 0-.92-.28v.03zM5.39 21.9l.26-.26 1.97 2.03-2.86 2.8-1.9-1.97.26-.26 1.62 1.66.97-.99-1.41-1.47.27-.26 1.45 1.48 1.06-1.03-1.7-1.73zm-4.25-2.24.14-.8.27.05-.16.8.77-.27.09.25-.77.26.63.54-.18.2-.61-.57-.15.81-.27-.05.16-.8-.77.27-.08-.23.76-.26-.63-.54.19-.2.61.54z"/></symbol><symbol id="menu-open" viewBox="0 0 32 32"><path fill="#fff" style="fill:var(--color1, #fff)" d="M6.4 11.74V9.6h19.2v2.14H6.4zm0 5.32h19.2v-2.12H6.4v2.12zm0 5.34h19.2v-2.14H6.4v2.14z"/></symbol></defs></svg>